<svg width="720" height="220" viewBox="0 0 720 220" fill="none" xmlns="http://www.w3.org/2000/svg"><defs><linearGradient id="mbg2" x1="20" y1="160" x2="320" y2="20" gradientUnits="userSpaceOnUse"><stop stop-color="#102B72"/><stop offset="0.5" stop-color="#3A47A8"/><stop offset="1" stop-color="#D59A52"/></linearGradient><linearGradient id="textg" x1="330" y1="60" x2="650" y2="60" gradientUnits="userSpaceOnUse"><stop stop-color="#102B72"/><stop offset="1" stop-color="#D59A52"/></linearGradient></defs><path d="M25 150L88 39c10-17 34-17 44 0l43 75 38-68c9-16 26-26 44-26h36l-27 47h-30c-5 0-10 3-13 8l-54 97c-9 16-32 16-41 0L111 72 64 150H25Z" fill="url(#mbg2)"/><path d="M176 150l55-99h46c22 0 35 24 24 44-4 7-9 12-16 15 10 11 11 26 3 39-8 15-24 24-42 24h-70Zm61-38h26c7 0 12-4 14-9 3-6-1-12-8-12h-21l-11 21Zm-20 38h34c8 0 14-4 17-10 3-6-1-12-9-12h-33l-9 22Z" fill="url(#mbg2)"/><text x="330" y="72" font-family="Vazirmatn, Arial" font-size="48" font-weight="800" fill="url(#textg)">MetaBooki</text><text x="330" y="130" font-family="Vazirmatn, Arial" font-size="42" font-weight="800" fill="url(#textg)">متابوکی</text><text x="333" y="172" font-family="Vazirmatn, Arial" font-size="24" fill="#102B72">Read - Explore - Interact</text></svg>