<svg width="256" height="160" viewBox="0 0 256 160" fill="none" xmlns="http://www.w3.org/2000/svg"><defs><linearGradient id="mbg" x1="22" y1="128" x2="230" y2="24" gradientUnits="userSpaceOnUse"><stop stop-color="#102B72"/><stop offset="0.48" stop-color="#3847A8"/><stop offset="1" stop-color="#D59A52"/></linearGradient></defs><path d="M24 126L76 34c8-14 28-14 36 0l35 61 31-56c7-13 21-21 36-21h25l-22 38h-22c-4 0-8 2-10 6l-44 79c-7 13-26 13-34 0L94 61l-38 65H24Z" fill="url(#mbg)"/><path d="M150 126l45-81h34c18 0 29 20 20 36-3 5-7 9-12 11 8 9 9 21 3 31-7 12-20 19-34 19h-56Zm49-31h21c5 0 9-3 11-7 2-5-1-10-7-10h-17l-8 17Zm-17 31h27c6 0 11-3 14-8 2-5-1-10-7-10h-27l-7 18Z" fill="url(#mbg)"/></svg>